# xmcd
#
# Track frame offsets:
#	150
#	13778
#	25626
#	39113
#	52117
#	67776
#	80539
#	102774
#	118336
#	133767
#	149122
#	162496
#	177299
#	191252
#	206539
#	216617
#	231289
#	244532
#	259704
#
# Disc length: 3654 seconds
#
# Revision: 0
# Processed by: cddbd v1.5.2PL0 Copyright (c) Steve Scherf et al.
# Submitted via: audiograbber 1.83.01
#
DISCID=110e4413
DTITLE=Various Artist - Promo Only Country November 2013
DYEAR=2013
DGENRE=Country
TTITLE0=American Young - Love Is War
TTITLE1=Hunter Hayes Feat. Jason Mraz - Everybody's Got Somebody But Me
TTITLE2=Sara Evans - Slow Me Down
TTITLE3=Brothers Osborne - Let's Go There
TTITLE4=Steve Holy - Radio Up
TTITLE5=Chris Janson - Cut Me Some Slack
TTITLE6=Kenny Chesney and Eric Church - When I See This Bar (Live Mix)
TTITLE7=Gary Allan - It Ain't The Whiskey (Radio Edit)
TTITLE8=Krystal Keith - Get Your Redneck On (Radio Edit)
TTITLE9=Randy Houser - Goodnight Kiss
TTITLE10=Morgan Frazier - Hey Bully
TTITLE11=Leah Turner - Take The Keys (Radio Edit)
TTITLE12=Keith Urban Feat. Miranda Lambert - We Were Us
TTITLE13=Brandon Hamilton - You Give Me That
TTITLE14=Hank Williams, Jr. Feat. Merle Haggard - I Think I'll Just Stay Here A
TTITLE14=nd Drink
TTITLE15=Ty Herndon - Lies I Told Myself
TTITLE16=Brett Eldredge - Beat Of The Music
TTITLE17=LoCash Cowboys - Best Seat In The House
TTITLE18=Little Big Town - Sober
EXTD=
EXTT0=
EXTT1=
EXTT2=
EXTT3=
EXTT4=
EXTT5=
EXTT6=
EXTT7=
EXTT8=
EXTT9=
EXTT10=
EXTT11=
EXTT12=
EXTT13=
EXTT14=
EXTT15=
EXTT16=
EXTT17=
EXTT18=
PLAYORDER=
